<?xml version="1.0" encoding="utf-8"?>
<!-- Generator: Adobe Illustrator 19.2.1, SVG Export Plug-In . SVG Version: 6.00 Build 0)  -->
<svg version="1.1" xmlns="http://www.w3.org/2000/svg" xmlns:xlink="http://www.w3.org/1999/xlink" x="0px" y="0px"
	 viewBox="0 0 841.9 595.3" style="enable-background:new 0 0 841.9 595.3;" xml:space="preserve">
<style type="text/css">
	.st0{fill-rule:evenodd;clip-rule:evenodd;fill:#EFF3FF;stroke:#000000;stroke-width:2;stroke-miterlimit:10;}
	.st1{fill-rule:evenodd;clip-rule:evenodd;fill:#FDAE6B;stroke:#000000;stroke-width:2;stroke-miterlimit:10;}
	.st2{fill-rule:evenodd;clip-rule:evenodd;fill:#FFFFFF;}
	.st3{fill:#FFFFFF;}
</style>
<g id="Drop">
	<path class="st0" d="M230.9,166.8c0,1.7,1.5,12.5,4.4,21.1c4.5,13.5,19.3,52.8,26.6,65.7c21.3,37.6,38.8,57.7,38.5,94.3
		c-0.4,45-28.5,81.9-72.5,82.4c-44,0.4-80.5-42.3-76.3-84.7c3.4-34.8,25.2-59.5,45.6-92.2C214.1,226.5,230.5,176.9,230.9,166.8z"/>
</g>
<g id="Drainage">
	<rect x="362.5" y="230.8" class="st1" width="182" height="179"/>
	<polygon class="st2" points="373,242.3 373.2,247.4 376.2,253 425.3,253 427.5,247.4 428.3,242.3 	"/>
	<polygon class="st2" points="379.7,257.1 380.2,262.6 382.2,267.7 385,271.2 384.8,361.9 386.5,369.4 392.2,380.4 399.9,389.5 
		408.5,395.4 418.3,399 428.9,401.1 439.7,401 450.9,397.7 459.3,393.2 468.1,385.5 474.2,377.2 478,368.5 479.6,360.4 446.5,360.3 
		443.3,365.6 439.1,368.7 433.7,369.7 427.3,369.1 422.3,366.3 418.8,362.1 417,356.5 416.9,271.2 419.1,267.7 420.5,262.6 
		421.2,257.2 	"/>
	<rect x="442.9" y="340.8" class="st3" width="43.1" height="16.1"/>
	<rect x="518.3" y="290.7" class="st3" width="13.6" height="42"/>
	<polygon class="st3" points="448.1,336.9 448.3,332.7 449.8,327.8 452.1,322.5 455.3,317.5 459.1,312.5 463.8,307.7 468.7,304.2 
		473.1,301.3 478.3,298.9 484.1,297 490.4,296.2 495.6,295.9 500.1,295.8 500.1,293.9 512.9,293.9 512.9,329.4 500.1,329.4 
		500.1,326.8 494.3,326.9 491.1,327.7 487.4,329.6 484.4,331.7 482.5,333.7 481.2,337.2 	"/>
	<path class="st2" d="M506.2,344c0.2,0.3,0.3,2.2,0.9,3.9c0.9,2.7,2.2,6.4,3.7,9c4.3,7.5,9.4,15.7,9.3,23c-0.1,9-5.7,16.4-14.5,16.5
		c-8.8,0.1-16.1-8.5-15.3-16.9c0.7-7,5-11.9,9.1-18.4C502.9,355.6,506.2,346,506.2,344z"/>
</g>
</svg>
