<?xml version="1.0" encoding="UTF-8" standalone="no"?>
<!-- Created with Inkscape (http://www.inkscape.org/) -->

<svg
   xmlns:dc="http://purl.org/dc/elements/1.1/"
   xmlns:cc="http://creativecommons.org/ns#"
   xmlns:rdf="http://www.w3.org/1999/02/22-rdf-syntax-ns#"
   xmlns:svg="http://www.w3.org/2000/svg"
   xmlns="http://www.w3.org/2000/svg"
   xmlns:sodipodi="http://sodipodi.sourceforge.net/DTD/sodipodi-0.dtd"
   xmlns:inkscape="http://www.inkscape.org/namespaces/inkscape"
   version="1.1"
   width="230"
   height="115.73001"
   id="svg3111"
   inkscape:version="0.48.4 r9939"
   sodipodi:docname="circleII.svg">
  <sodipodi:namedview
     pagecolor="#ffffff"
     bordercolor="#666666"
     borderopacity="1"
     objecttolerance="10"
     gridtolerance="10"
     guidetolerance="10"
     inkscape:pageopacity="0"
     inkscape:pageshadow="2"
     inkscape:window-width="1289"
     inkscape:window-height="744"
     id="namedview30"
     showgrid="false"
     inkscape:zoom="2.0647518"
     inkscape:cx="96.026278"
     inkscape:cy="-19.822803"
     inkscape:window-x="77"
     inkscape:window-y="24"
     inkscape:window-maximized="1"
     inkscape:current-layer="g4005"
     fit-margin-top="0"
     fit-margin-left="0"
     fit-margin-right="0"
     fit-margin-bottom="0" />
  <defs
     id="defs3113" />
  <metadata
     id="metadata3116">
    <rdf:RDF>
      <cc:Work
         rdf:about="">
        <dc:format>image/svg+xml</dc:format>
        <dc:type
           rdf:resource="http://purl.org/dc/dcmitype/StillImage" />
        <dc:title></dc:title>
      </cc:Work>
    </rdf:RDF>
  </metadata>
  <g
     transform="translate(-234.5209,-316.25079)"
     id="layer1">
    <g
       id="g4005"
       transform="translate(49.400611,0)">
      <path
         d="m 302.80632,331.87577 c -0.37628,0.003 -0.74904,0.0172 -1.125,0.0312 l 2.96875,2.96875 c 0.40912,0.0177 0.81062,0.0313 1.21875,0.0625 l -3.0625,-3.0625 z m 4.03125,0.1875 3.46875,3.46875 c 0.50382,0.0996 1.00061,0.22393 1.5,0.34375 l -3.65625,-3.65625 c -0.43566,-0.0552 -0.8753,-0.11533 -1.3125,-0.15625 z m -8.6875,0.15625 c -0.3318,0.042 -0.66931,0.0748 -1,0.125 l 2.59375,2.625 c 0.36707,-0.0331 0.72574,-0.0403 1.09375,-0.0625 z m -4.25,0.75 c -0.31087,0.0732 -0.62836,0.13842 -0.9375,0.21875 l 2.4375,2.4375 c 0.32133,-0.0672 0.64578,-0.12858 0.96875,-0.1875 z m 18.9375,0.0937 4.65625,4.65625 c 0.69182,0.2842 1.38826,0.58261 2.0625,0.90625 l -5.125,-5.09375 c -0.52953,-0.15319 -1.05866,-0.33672 -1.59375,-0.46875 z m -22.8125,1.03125 c -0.28544,0.097 -0.56046,0.20936 -0.84375,0.3125 l 2.28125,2.28125 c 0.29335,-0.0946 0.57948,-0.19371 0.875,-0.28125 z m -3.59375,1.40625 c -0.26291,0.11747 -0.52083,0.25215 -0.78125,0.375 l 2.1875,2.1875 c 0.26273,-0.1148 0.51605,-0.23479 0.78125,-0.34375 z m 34.21875,0.34375 19.46875,19.46875 c -0.37216,-0.79223 -0.79786,-1.54544 -1.21875,-2.3125 l -15.9375,-15.9375 c -0.76717,-0.4217 -1.52016,-0.84594 -2.3125,-1.21875 z m -37.5625,1.34375 c -0.24117,0.13469 -0.48034,0.2668 -0.71875,0.40625 l 2.125,2.125 c 0.24062,-0.13396 0.47532,-0.27747 0.71875,-0.40625 z m -3.09375,1.90625 c -0.22075,0.15029 -0.43851,0.31418 -0.65625,0.46875 l 2.0625,2.0625 c 0.22855,-0.15743 0.45557,-0.31636 0.6875,-0.46875 z m -2.875,2.125 c -0.20685,0.16928 -0.39034,0.35784 -0.59375,0.53125 l 2.03125,2.03125 c 0.2036,-0.17092 0.41783,-0.33351 0.625,-0.5 z m -2.625,2.34375 c -0.0944,0.0925 -0.18777,0.18777 -0.28125,0.28125 -0.0988,0.0988 -0.18348,0.21259 -0.28125,0.3125 l 2.03125,2.03125 c 0.077,-0.0785 0.14099,-0.17221 0.21875,-0.25 0.11522,-0.11525 0.22703,-0.23009 0.34375,-0.34375 z m -2.40625,2.625 c -0.17133,0.20127 -0.36392,0.3891 -0.53125,0.59375 l 2.03125,2.03125 c 0.16743,-0.20681 0.3594,-0.39053 0.53125,-0.59375 z m -2.1875,2.8125 c -0.15668,0.22091 -0.31645,0.43223 -0.46875,0.65625 l 2.03125,2.03125 c 0.15061,-0.22685 0.34456,-0.43267 0.5,-0.65625 z m -1.96875,3.03125 c -0.13867,0.237 -0.27226,0.47902 -0.40625,0.71875 l 2.0625,2.0625 c 0.12904,-0.24133 0.30336,-0.44896 0.4375,-0.6875 z m -1.75,3.24995 c -0.12124,0.25678 -0.22772,0.52206 -0.34375,0.78125 l 2.1875,2.1875 c 0.11382,-0.27411 0.22368,-0.54106 0.34375,-0.8125 z m 71.125,1.09375 c 0.32624,0.68148 0.62028,1.36316 0.90625,2.0625 l 4.625,4.625 c -0.12725,-0.51282 -0.2596,-1.0235 -0.40625,-1.53125 z m -72.5625,2.4375 c -0.10333,0.28249 -0.21526,0.55913 -0.3125,0.84375 l 2.25,2.25 c 0.0854,-0.28213 0.18944,-0.56364 0.28125,-0.84375 z m -1.21875,3.8125 c -0.0782,0.29973 -0.1473,0.60491 -0.21875,0.90625 l 2.40625,2.40625 c 0.0588,-0.31325 0.12092,-0.62583 0.1875,-0.9375 z m 76.5,1.46875 c 0.11669,0.48801 0.21508,0.97651 0.3125,1.46875 l 3.5625,3.5625 c -0.04,-0.42721 -0.10269,-0.85543 -0.15625,-1.28125 z m -77.34375,2.6875 c -0.0507,0.33096 -0.0825,0.66796 -0.125,1 l 2.59375,2.59375 c 0.0235,-0.35211 0.0603,-0.71131 0.0937,-1.0625 l -2.5625,-2.53125 z m 78.28125,3.25 c 0.0307,0.40412 0.0451,0.81366 0.0625,1.21875 l 3,3 c 0.013,-0.36002 0.0281,-0.73344 0.0312,-1.09375 l -3.09375,-3.125 z m -78.71875,1.3125 c -0.0138,0.36562 -0.0277,0.7279 -0.0312,1.09375 l 2.9375,2.96875 c -0.0282,-0.4032 -0.0475,-0.81474 -0.0625,-1.21875 l -2.84375,-2.84375 z m 78.75,3.75 c -0.0211,0.34176 -0.0633,0.69025 -0.0937,1.03125 l 2.71875,2.6875 c 0.0494,-0.32552 0.0835,-0.64215 0.125,-0.96875 l -2.75,-2.75 z m -78.59375,1.40625 c 0.0403,0.43197 0.10191,0.85077 0.15625,1.28125 l 3.46875,3.46875 c -0.1075,-0.46735 -0.19136,-0.93523 -0.28125,-1.40625 z m 78.03125,3.03125 c -0.057,0.31285 -0.12268,0.62615 -0.1875,0.9375 l 1.8125,1.8125 0.6875,0.6875 c 0.0786,-0.30334 0.14704,-0.60125 0.21875,-0.90625 l -0.34375,-0.34375 z m -77.03125,2.96875 c 0.12988,0.52391 0.28728,1.04391 0.4375,1.5625 l 4.84375,4.84375 c -0.30902,-0.66429 -0.60389,-1.31931 -0.875,-2 z m 76.0625,1.0625 c -0.0862,0.29053 -0.15698,0.58655 -0.25,0.875 l 2.34375,2.34375 c 0.0993,-0.2727 0.21892,-0.53781 0.3125,-0.8125 z m -1.28125,3.71875 c -0.10908,0.26584 -0.22883,0.51789 -0.34375,0.78125 l 2.28125,2.25 c 0.11974,-0.25449 0.1979,-0.52439 0.3125,-0.78125 z m -72.03125,2.96875 c 0.37595,0.79977 0.79312,1.56951 1.21875,2.34375 l 16,16 c 0.75515,0.41409 1.53302,0.82075 2.3125,1.1875 z m 70.4375,0.4375 c -0.12882,0.24383 -0.27226,0.47774 -0.40625,0.71875 l 2.1875,2.1875 c 0.13832,-0.23665 0.27262,-0.47939 0.40625,-0.71875 z m -1.84375,3.15625 c -0.1473,0.22446 -0.31675,0.43496 -0.46875,0.65625 l 2.125,2.125 c 0.15642,-0.22065 0.31673,-0.43252 0.46875,-0.65625 z m -2.125,2.875 c -0.16695,0.20845 -0.32859,0.42017 -0.5,0.625 l 2.09375,2.09375 c 0.17629,-0.20712 0.35923,-0.41432 0.53125,-0.625 z m -2.34375,2.65625 c -0.11363,0.11677 -0.22853,0.2285 -0.34375,0.34375 -0.0725,0.0725 -0.14567,0.14687 -0.21875,0.21875 l 2.09375,2.09375 c 0.0945,-0.0926 0.18768,-0.18768 0.28125,-0.28125 0.0946,-0.0946 0.18767,-0.18571 0.28125,-0.28125 z m -2.59375,2.40625 c -0.20423,0.17283 -0.38589,0.3629 -0.59375,0.53125 l 2.09375,2.09375 c 0.20649,-0.1688 0.39069,-0.35834 0.59375,-0.53125 z m -2.8125,2.1875 c -0.22381,0.15562 -0.42915,0.31798 -0.65625,0.46875 l 2.09375,2.09375 c 0.22271,-0.15151 0.43661,-0.31288 0.65625,-0.46875 z m -3.0625,1.90625 c -0.24808,0.13989 -0.49888,0.27188 -0.75,0.40625 l 2.15625,2.15625 c 0.24915,-0.13915 0.50379,-0.26202 0.75,-0.40625 z m -34.75,1.40625 4.8125,4.8125 c 0.51874,0.15003 1.03841,0.30777 1.5625,0.4375 l -4.375,-4.40625 c -0.67716,-0.26881 -1.33904,-0.53732 -2,-0.84375 z m 31.40625,0.28125 c -0.25862,0.11446 -0.52019,0.23496 -0.78125,0.34375 l 2.21875,2.21875 c 0.25878,-0.11562 0.52488,-0.22291 0.78125,-0.34375 z m -3.625,1.375 c -0.27962,0.0916 -0.56212,0.19604 -0.84375,0.28125 l 2.3125,2.3125 c 0.28419,-0.0968 0.56169,-0.20961 0.84375,-0.3125 z m -20.1875,0.9375 3.53125,3.53125 c 0.42549,0.0536 0.8543,0.11629 1.28125,0.15625 l -3.375,-3.375 c -0.48201,-0.0916 -0.95939,-0.20241 -1.4375,-0.3125 z m 16.25,0.125 c -0.31389,0.0673 -0.622,0.12812 -0.9375,0.1875 l 2.4375,2.4375 c 0.30068,-0.0708 0.60719,-0.14126 0.90625,-0.21875 z m -4.3125,0.6875 c -0.35584,0.0342 -0.70571,0.0385 -1.0625,0.0625 l 2.65625,2.65625 c 0.33178,-0.0423 0.66934,-0.0746 1,-0.125 z m -6.0625,0.0625 2.96875,2.96875 c 0.37639,-0.003 0.74893,-0.0171 1.125,-0.0312 l -2.875,-2.875 c -0.40798,-0.0146 -0.81167,-0.0345 -1.21875,-0.0625 z"
         id="path3758-9-7-9-6-0-9-8-4-3-3"
         style="font-size:medium;font-style:normal;font-variant:normal;font-weight:normal;font-stretch:normal;text-indent:0;text-align:start;text-decoration:none;line-height:normal;letter-spacing:normal;word-spacing:normal;text-transform:none;direction:ltr;block-progression:tb;writing-mode:lr-tb;text-anchor:start;baseline-shift:baseline;color:#000000;fill:#333333;fill-opacity:1;stroke:none;stroke-width:0;marker:none;visibility:visible;display:inline;overflow:visible;enable-background:accumulate;font-family:Sans;-inkscape-font-specification:Sans"
         inkscape:connector-curvature="0" />
      <path
         d="m 344.80366,372.81134 a 41.678015,41.678015 0 0 1 -83.35603,0 41.678015,41.678015 0 1 1 83.35603,0 z"
         id="path3754"
         style="fill:none;stroke:#222222;stroke-width:1.50000012;stroke-linecap:butt;stroke-linejoin:miter;stroke-miterlimit:4;stroke-opacity:1;stroke-dasharray:none"
         inkscape:connector-curvature="0" />
      <path
         d="m 340.30488,372.83549 a 37.25539,37.25539 0 0 1 -74.51078,0 37.25539,37.25539 0 1 1 74.51078,0 z"
         id="path3754-1"
         style="fill:none;stroke:#222222;stroke-width:1.49999988;stroke-linecap:butt;stroke-linejoin:miter;stroke-miterlimit:4;stroke-opacity:1;stroke-dasharray:none"
         inkscape:connector-curvature="0" />
      <path
         d="m 267.76864,359.95156 70.0668,0"
         id="path3778"
         style="fill:none;stroke:#222222;stroke-width:0.89999998;stroke-linecap:butt;stroke-linejoin:miter;stroke-miterlimit:4;stroke-opacity:1;stroke-dasharray:none"
         inkscape:connector-curvature="0" />
      <path
         d="m 304.45562,330.92614 49.77634,0"
         id="path4291"
         style="fill:none;stroke:#222222;stroke-width:0.5;stroke-linecap:butt;stroke-linejoin:miter;stroke-miterlimit:4;stroke-opacity:1;stroke-dasharray:none"
         inkscape:connector-curvature="0" />
      <path
         d="m 304.45562,414.16211 49.88328,0"
         id="path4291-2"
         style="fill:none;stroke:#222222;stroke-width:0.5;stroke-linecap:butt;stroke-linejoin:miter;stroke-miterlimit:4;stroke-opacity:1;stroke-dasharray:none"
         inkscape:connector-curvature="0" />
      <path
         d="m 351.54883,334.25187 0,75.5765"
         id="path4291-8"
         style="fill:none;stroke:#222222;stroke-width:0.61610103;stroke-linecap:butt;stroke-linejoin:miter;stroke-miterlimit:4;stroke-opacity:1;stroke-dasharray:none"
         inkscape:connector-curvature="0" />
      <path
         d="m 353.02497,337.03658 -1.47967,0.0137 -1.47969,0.0137 0.73414,-2.6607 0.73413,-2.6607 0.74554,2.64706 z"
         id="path5097"
         style="fill:#333333;fill-opacity:1;fill-rule:nonzero;stroke:#222222;stroke-width:0;stroke-linecap:butt;stroke-linejoin:miter;stroke-miterlimit:4;stroke-opacity:1;stroke-dasharray:none"
         inkscape:connector-curvature="0" />
      <path
         d="m 350.06562,408.17055 1.47967,-0.0137 1.47968,-0.0137 -0.73413,2.6607 -0.73413,2.6607 -0.74554,-2.64706 z"
         id="path5097-7"
         style="fill:#333333;fill-opacity:1;fill-rule:nonzero;stroke:#222222;stroke-width:0;stroke-linecap:butt;stroke-linejoin:miter;stroke-miterlimit:4;stroke-opacity:1;stroke-dasharray:none"
         inkscape:connector-curvature="0" />
      <text
         x="357.09048"
         y="374.21735"
         id="ghjrtjjy"
         xml:space="preserve"
         style="font-size:10px;font-style:normal;font-weight:normal;line-height:0%;letter-spacing:0px;word-spacing:0px;fill:#000000;fill-opacity:1;stroke:none;font-family:Sans"
         sodipodi:linespacing="0%"><tspan
           x="357.09048"
           y="374.21735"
           id="myDiam"
           style="font-size:10px;line-height:0%;stroke:none">myDiam</tspan></text>
      <path
         d="M 266.00956,354.52856 251.83712,340.35612"
         id="path5125"
         style="fill:none;stroke:#222222;stroke-width:0.80000001;stroke-linecap:butt;stroke-linejoin:miter;stroke-miterlimit:4;stroke-opacity:1;stroke-dasharray:none"
         inkscape:connector-curvature="0" />
      <path
         d="m 222.35778,340.56941 29.52547,0"
         id="path4291-1"
         style="fill:none;stroke:#222222;stroke-width:0.61613643;stroke-linecap:butt;stroke-linejoin:miter;stroke-miterlimit:4;stroke-opacity:1;stroke-dasharray:none"
         inkscape:connector-curvature="0" />
      <text
         x="186.14937"
         y="337.42136"
         id="myMat"
         xml:space="preserve"
         style="font-size:6px;font-style:normal;font-weight:normal;line-height:125%;letter-spacing:0px;word-spacing:0px;fill:#000000;fill-opacity:1;stroke:none;font-family:Sans"
         sodipodi:linespacing="125%"><tspan
           x="186.14937"
           y="337.42136"
           id="tspan5147"
           style="font-size:10px">myMat</tspan></text>
      <text
         x="259.57397"
         y="323.84845"
         id="text5149"
         xml:space="preserve"
         style="font-size:10px;font-style:normal;font-weight:normal;line-height:125%;letter-spacing:0px;word-spacing:0px;fill:#000000;fill-opacity:1;stroke:none;font-family:Sans"
         sodipodi:linespacing="125%"><tspan
           x="259.57397"
           y="323.84845"
           id="tspan5151"
           style="font-size:10px">Install date:</tspan></text>
      <text
         x="319.4425"
         y="323.84845"
         id="myDatechgmgc
"
         xml:space="preserve"
         style="font-size:6px;font-style:normal;font-weight:normal;line-height:125%;letter-spacing:0px;word-spacing:0px;fill:#000000;fill-opacity:1;stroke:none;font-family:Sans"
         sodipodi:linespacing="125%"><tspan
           x="319.4425"
           y="323.84845"
           id="myDate"
           style="font-size:10px">myGradient</tspan></text>
      <text
         x="238.85982"
         y="429.90073"
         id="text5149-1"
         xml:space="preserve"
         style="font-size:6px;font-style:normal;font-weight:normal;line-height:125%;letter-spacing:0px;word-spacing:0px;fill:#000000;fill-opacity:1;stroke:none;font-family:Sans"
         sodipodi:linespacing="125%"><tspan
           x="238.85982"
           y="429.90073"
           id="tspan5151-1"
           style="font-size:10px">Gradient:</tspan></text>
      <text
         x="286.77057"
         y="429.90073"
         id="myGrad3"
         xml:space="preserve"
         style="font-size:6px;font-style:normal;font-weight:normal;line-height:125%;letter-spacing:0px;word-spacing:0px;fill:#000000;fill-opacity:1;stroke:none;font-family:Sans"
         sodipodi:linespacing="125%"><tspan
           x="286.77057"
           y="429.90073"
           id="myGrad"
           style="font-size:10px">myGradient:</tspan></text>
    </g>
  </g>
</svg>
