<?xml version="1.0" encoding="UTF-8" standalone="no"?>
<!-- Created with Inkscape (http://www.inkscape.org/) -->

<svg
   xmlns:dc="http://purl.org/dc/elements/1.1/"
   xmlns:cc="http://creativecommons.org/ns#"
   xmlns:rdf="http://www.w3.org/1999/02/22-rdf-syntax-ns#"
   xmlns:svg="http://www.w3.org/2000/svg"
   xmlns="http://www.w3.org/2000/svg"
   xmlns:sodipodi="http://sodipodi.sourceforge.net/DTD/sodipodi-0.dtd"
   xmlns:inkscape="http://www.inkscape.org/namespaces/inkscape"
   version="1.1"
   width="230"
   height="115.73001"
   id="svg3111"
   inkscape:version="0.48.4 r9939"
   sodipodi:docname="rect.svg">
  <sodipodi:namedview
     pagecolor="#ffffff"
     bordercolor="#666666"
     borderopacity="1"
     objecttolerance="10"
     gridtolerance="10"
     guidetolerance="10"
     inkscape:pageopacity="0"
     inkscape:pageshadow="2"
     inkscape:window-width="1289"
     inkscape:window-height="744"
     id="namedview30"
     showgrid="false"
     inkscape:zoom="2.92"
     inkscape:cx="129.65188"
     inkscape:cy="37.322607"
     inkscape:window-x="77"
     inkscape:window-y="24"
     inkscape:window-maximized="1"
     inkscape:current-layer="g4005"
     fit-margin-top="0"
     fit-margin-left="0"
     fit-margin-right="0"
     fit-margin-bottom="0" />
  <defs
     id="defs3113" />
  <metadata
     id="metadata3116">
    <rdf:RDF>
      <cc:Work
         rdf:about="">
        <dc:format>image/svg+xml</dc:format>
        <dc:type
           rdf:resource="http://purl.org/dc/dcmitype/StillImage" />
        <dc:title />
      </cc:Work>
    </rdf:RDF>
  </metadata>
  <g
     transform="translate(-234.5209,-316.25079)"
     id="layer1">
    <g
       id="g4005"
       transform="translate(49.400611,0)">
      <path
         d="m 306.68165,329.72751 49.77634,0"
         id="path4291"
         style="fill:none;stroke:#222222;stroke-width:0.5;stroke-linecap:butt;stroke-linejoin:miter;stroke-miterlimit:4;stroke-opacity:1;stroke-dasharray:none"
         inkscape:connector-curvature="0" />
      <path
         d="m 307.02411,414.84704 49.88328,0"
         id="path4291-2"
         style="fill:none;stroke:#222222;stroke-width:0.5;stroke-linecap:butt;stroke-linejoin:miter;stroke-miterlimit:4;stroke-opacity:1;stroke-dasharray:none"
         inkscape:connector-curvature="0" />
      <g
         id="g3787"
         transform="translate(3.7671233,0)">
        <path
           inkscape:connector-curvature="0"
           style="fill:none;stroke:#222222;stroke-width:0.61610103;stroke-linecap:butt;stroke-linejoin:miter;stroke-miterlimit:4;stroke-opacity:1;stroke-dasharray:none"
           id="path4291-8"
           d="m 351.54883,334.25187 0,75.5765" />
        <path
           inkscape:connector-curvature="0"
           style="fill:#333333;fill-opacity:1;fill-rule:nonzero;stroke:#222222;stroke-width:0;stroke-linecap:butt;stroke-linejoin:miter;stroke-miterlimit:4;stroke-opacity:1;stroke-dasharray:none"
           id="path5097"
           d="m 353.02497,337.03658 -1.47967,0.0137 -1.47969,0.0137 0.73414,-2.6607 0.73413,-2.6607 0.74554,2.64706 z" />
        <path
           inkscape:connector-curvature="0"
           style="fill:#333333;fill-opacity:1;fill-rule:nonzero;stroke:#222222;stroke-width:0;stroke-linecap:butt;stroke-linejoin:miter;stroke-miterlimit:4;stroke-opacity:1;stroke-dasharray:none"
           id="path5097-7"
           d="m 350.06562,408.17055 1.47967,-0.0137 1.47968,-0.0137 -0.73413,2.6607 -0.73413,2.6607 -0.74554,-2.64706 z" />
      </g>
      <text
         x="359.3165"
         y="374.21735"
         id="ghjrtjjy"
         xml:space="preserve"
         style="font-size:10px;font-style:normal;font-weight:normal;line-height:0%;letter-spacing:0px;word-spacing:0px;fill:#000000;fill-opacity:1;stroke:none;font-family:Sans"
         sodipodi:linespacing="0%"><tspan
           x="359.3165"
           y="374.21735"
           id="myDiam"
           style="font-size:10px;line-height:0%;stroke:none">myDiam</tspan></text>
      <path
         d="M 262.68334,350.68864 251.73868,340.25768"
         id="path5125"
         style="fill:none;stroke:#222222;stroke-width:0.7;stroke-linecap:butt;stroke-linejoin:miter;stroke-miterlimit:4;stroke-opacity:1;stroke-dasharray:none"
         inkscape:connector-curvature="0" />
      <path
         d="m 222.35778,340.56941 29.52547,0"
         id="path4291-1"
         style="fill:none;stroke:#222222;stroke-width:0.61613643;stroke-linecap:butt;stroke-linejoin:miter;stroke-miterlimit:4;stroke-opacity:1;stroke-dasharray:none"
         inkscape:connector-curvature="0" />
      <text
         x="186.14937"
         y="337.42136"
         id="myMat"
         xml:space="preserve"
         style="font-size:6px;font-style:normal;font-weight:normal;line-height:125%;letter-spacing:0px;word-spacing:0px;fill:#000000;fill-opacity:1;stroke:none;font-family:Sans"
         sodipodi:linespacing="125%"><tspan
           x="186.14937"
           y="337.42136"
           id="tspan5147"
           style="font-size:10px">myMat</tspan></text>
      <text
         x="259.57397"
         y="323.84845"
         id="text5149"
         xml:space="preserve"
         style="font-size:10px;font-style:normal;font-weight:normal;line-height:125%;letter-spacing:0px;word-spacing:0px;fill:#000000;fill-opacity:1;stroke:none;font-family:Sans"
         sodipodi:linespacing="125%"><tspan
           x="259.57397"
           y="323.84845"
           id="tspan5151"
           style="font-size:10px">Install date:</tspan></text>
      <text
         x="319.4425"
         y="323.84845"
         id="myDatechgmgc "
         xml:space="preserve"
         style="font-size:6px;font-style:normal;font-weight:normal;line-height:125%;letter-spacing:0px;word-spacing:0px;fill:#000000;fill-opacity:1;stroke:none;font-family:Sans"
         sodipodi:linespacing="125%"><tspan
           x="319.4425"
           y="323.84845"
           id="myDate"
           style="font-size:10px">myGradient</tspan></text>
      <text
         x="238.85982"
         y="429.90073"
         id="text5149-1"
         xml:space="preserve"
         style="font-size:6px;font-style:normal;font-weight:normal;line-height:125%;letter-spacing:0px;word-spacing:0px;fill:#000000;fill-opacity:1;stroke:none;font-family:Sans"
         sodipodi:linespacing="125%"><tspan
           x="238.85982"
           y="429.90073"
           id="tspan5151-1"
           style="font-size:10px">Gradient:</tspan></text>
      <text
         x="286.77057"
         y="429.90073"
         id="myGrad3"
         xml:space="preserve"
         style="font-size:6px;font-style:normal;font-weight:normal;line-height:125%;letter-spacing:0px;word-spacing:0px;fill:#000000;fill-opacity:1;stroke:none;font-family:Sans"
         sodipodi:linespacing="125%"><tspan
           x="286.77057"
           y="429.90073"
           id="myGrad"
           style="font-size:10px">myGradient:</tspan></text>
      <path
         style="font-size:medium;font-style:normal;font-variant:normal;font-weight:normal;font-stretch:normal;text-indent:0;text-align:start;text-decoration:none;line-height:normal;letter-spacing:normal;word-spacing:normal;text-transform:none;direction:ltr;block-progression:tb;writing-mode:lr-tb;text-anchor:start;baseline-shift:baseline;color:#000000;fill:#333333;fill-opacity:1;stroke:none;stroke-width:0.80000001;marker:none;visibility:visible;display:inline;overflow:visible;enable-background:accumulate;font-family:Sans;-inkscape-font-specification:Sans"
         d="m 261.33498,330.80316 0,0.59375 3.03125,3.03125 0,-0.625 0.53125,0 -3,-3 z m 4.40625,0 3,3 1.15625,0 -3,-3 z m 5.00001,0 3,3 1.15625,0 -3,-3 z m 5,0 3,3 1.15625,0 -3,-3 z m 5,0 3,3 1.15625,0 -3,-3 z m 5,0 3,3 1.15625,0 -3,-3 z m 5,0 3,3 1.15625,0 -3,-3 z m 5,0 3,3 1.15625,0 -3,-3 z m 5,0 3,3 1.15625,0 -3,-3 z m 5,0 3,3 1.15625,0 -3,-3 z m 5,0 3,3 1.15625,0 -3,-3 z m 5,0 3,3 1.15625,0 -3,-3 z m 5,0 3,3 1.15625,0 -3,-3 z m 5,0 3,3 1.15625,0 -3,-3 z m 5,0 3,3 1.15625,0 -3,-3 z m 5,0 3,3 1.15625,0 -3,-3 z m 5,0 3,3 0.15625,0 0.71875,0 0,0.71875 0,0.15625 3.03125,3.03125 0,-1.15625 -5.75,-5.75 z m 5,0 1.90625,1.90625 0,-1.15625 -0.75,-0.75 z m -84.40626,4.4375 0,1.15625 3.03125,3.03125 0,-1.15625 z m 83.28126,3.28125 0,1.15625 3.03125,3.03125 0,-1.15625 z m -83.28126,1.71875 0,1.15625 3.03125,3.03125 0,-1.15625 z m 83.28126,3.28125 0,1.15625 3.03125,3.03125 0,-1.125 z m -83.28126,1.75 0,1.125 3.03125,3.03125 0,-1.125 z m 83.28126,3.28125 0,1.125 3.03125,3.03125 0,-1.125 z m -83.28126,1.71875 0,1.125 3.03125,3.03125 0,-1.125 z m 83.28126,3.28125 0,1.125 3.03125,3.03125 0,-1.125 z m -83.28126,1.71875 0,1.125 3.03125,3.03125 0,-1.125 z m 83.28126,3.28125 0,1.125 3.03125,3.03125 0,-1.125 z m -83.28126,1.71875 0,1.125 3.03125,3.03125 0,-1.125 z m 83.28126,3.28125 0,1.125 3.03125,3.03125 0,-1.125 z m -83.28126,1.71875 0,1.125 3.03125,3.03125 0,-1.125 z m 83.28126,3.28125 0,1.125 3.03125,3.03125 0,-1.125 z m -83.28126,1.71875 0,1.125 2.78125,2.78125 0.25,0.25 0,-1.125 z m 83.28126,3.28125 0,1.125 3.03125,3.03125 0,-1.125 -2.96875,-2.96875 z m -83.28126,1.71875 0,1.125 3.03125,3.03125 0,-1.125 z m 83.28126,3.28125 0,1.125 3.03125,3.03125 0,-1.125 z m -83.28126,1.71875 0,1.125 3.03125,3.03125 0,-1.125 z m 83.28126,3.28125 0,1.125 3.03125,3.03125 0,-1.125 z m -83.28126,1.71875 0,1.125 3.03125,3.03125 0,-1.125 z m 83.28126,3.28125 0,1.125 3.03125,3.03125 0,-1.125 z m -83.28126,1.71875 0,1.125 3.03125,3.03125 0,-1.125 z m 83.28126,3.28125 0,1.125 3.03125,3.03125 0,-1.125 z m -83.28126,1.71875 0,1.125 3.03125,3.03125 0,-1.125 z m 83.28126,3.28125 0,1.125 3.03125,3.03125 0,-1.125 z m -83.28126,1.71875 0,1.125 3.03125,3.03125 0,-1.15625 z m 83.28126,3.25 0,1.15625 3.03125,3.03125 0,-1.15625 z m -83.28126,1.71875 0,1.15625 3.03125,3.03125 0,-1.15625 z m 83.28126,3.28125 0,1.03125 0,0.125 3.03125,3.03125 0,-1.15625 z m -83.28126,1.71875 0,1.15625 2.3125,2.3125 1.15625,0 z m 3.875,0.0312 3.4375,3.4375 1.15625,0 -3.4375,-3.4375 z m 5.00001,0 3.4375,3.4375 1.15625,0 -3.4375,-3.4375 z m 5,0 3.4375,3.4375 1.15625,0 -3.4375,-3.4375 z m 5,0 3.4375,3.4375 1.15625,0 -3.4375,-3.4375 z m 5,0 3.4375,3.4375 1.15625,0 -3.4375,-3.4375 z m 5,0 3.4375,3.4375 1.15625,0 -3.4375,-3.4375 z m 5,0 3.4375,3.4375 1.15625,0 -3.4375,-3.4375 z m 5,0 3.4375,3.4375 1.15625,0 -3.4375,-3.4375 z m 5,0 3.4375,3.4375 1.15625,0 -3.4375,-3.4375 z m 5,0 3.4375,3.4375 1.15625,0 -3.4375,-3.4375 z m 5,0 3.4375,3.4375 1.15625,0 -3.4375,-3.4375 z m 5,0 3.4375,3.4375 1.15625,0 -3.4375,-3.4375 z m 5,0 3.4375,3.4375 1.15625,0 -3.4375,-3.4375 z m 5,0 3.4375,3.4375 1.15625,0 -3.4375,-3.4375 z m 5,0 3.4375,3.4375 1.15625,0 -3.4375,-3.4375 z m 5,0 3.4375,3.4375 1.15625,0 -3.4375,-3.4375 z"
         id="path3758-9-7-9-6-0-9-8-4-3-9-2"
         inkscape:connector-curvature="0"
         sodipodi:nodetypes="ccccccccccccccccccccccccccccccccccccccccccccccccccccccccccccccccccccccccccccccccccccccccccccccccccccccccccccccccccccccccccccccccccccccccccccccccccccccccccccccccccccccccccccccccccccccccccccccccccccccccccccccccccccccccccccccccccccccccccccccccccccccccccccccccccccccccccccccccccccccccccccccccccccccccccccccccccccccccccccccccccccccccccccccc" />
      <rect
         style="fill:none;stroke:#333333;stroke-width:1.39999998;stroke-linecap:butt;stroke-linejoin:miter;stroke-miterlimit:14.19999981;stroke-opacity:1;stroke-dasharray:none"
         id="rect2986"
         width="87.711861"
         height="84.322037"
         x="260.73016"
         y="330.12589" />
      <rect
         style="fill:none;stroke:#333333;stroke-width:1.39999998;stroke-linecap:butt;stroke-linejoin:miter;stroke-miterlimit:14.19999981;stroke-opacity:1;stroke-dasharray:none"
         id="rect2986-4"
         width="78.855766"
         height="75.042213"
         x="265.15826"
         y="334.55396" />
      <path
         style="fill:none;stroke:#333333;stroke-width:0.89999998;stroke-linecap:butt;stroke-linejoin:miter;stroke-miterlimit:4;stroke-opacity:1;stroke-dasharray:none"
         d="m 265.17936,354.49033 78.60171,0"
         id="path3774-0"
         inkscape:connector-curvature="0" />
    </g>
  </g>
</svg>
