<?xml version="1.0" encoding="UTF-8" standalone="no"?>
<!-- Created with Inkscape (http://www.inkscape.org/) -->

<svg
   xmlns:dc="http://purl.org/dc/elements/1.1/"
   xmlns:cc="http://creativecommons.org/ns#"
   xmlns:rdf="http://www.w3.org/1999/02/22-rdf-syntax-ns#"
   xmlns:svg="http://www.w3.org/2000/svg"
   xmlns="http://www.w3.org/2000/svg"
   xmlns:sodipodi="http://sodipodi.sourceforge.net/DTD/sodipodi-0.dtd"
   xmlns:inkscape="http://www.inkscape.org/namespaces/inkscape"
   version="1.1"
   width="212.36"
   height="148.23"
   id="svg3111"
   inkscape:version="0.48.4 r9939"
   sodipodi:docname="tri.svg">
  <sodipodi:namedview
     pagecolor="#ffffff"
     bordercolor="#666666"
     borderopacity="1"
     objecttolerance="10"
     gridtolerance="10"
     guidetolerance="10"
     inkscape:pageopacity="0"
     inkscape:pageshadow="2"
     inkscape:window-width="1289"
     inkscape:window-height="744"
     id="namedview30"
     showgrid="false"
     inkscape:zoom="1.8101934"
     inkscape:cx="112.86552"
     inkscape:cy="16.004575"
     inkscape:window-x="77"
     inkscape:window-y="24"
     inkscape:window-maximized="1"
     inkscape:current-layer="g4005"
     fit-margin-top="0"
     fit-margin-left="0"
     fit-margin-right="0"
     fit-margin-bottom="0" />
  <defs
     id="defs3113" />
  <metadata
     id="metadata3116">
    <rdf:RDF>
      <cc:Work
         rdf:about="">
        <dc:format>image/svg+xml</dc:format>
        <dc:type
           rdf:resource="http://purl.org/dc/dcmitype/StillImage" />
        <dc:title />
      </cc:Work>
    </rdf:RDF>
  </metadata>
  <g
     transform="translate(-236.45818,-299.25077)"
     id="layer1">
    <g
       id="g4005"
       transform="translate(49.400611,0)">
      <text
         x="296.06622"
         y="439.10458"
         id="ghjrtjjy"
         xml:space="preserve"
         style="font-size:10px;font-style:normal;font-weight:normal;line-height:0%;letter-spacing:0px;word-spacing:0px;fill:#000000;fill-opacity:1;stroke:none;font-family:Sans"
         sodipodi:linespacing="0%"><tspan
           x="296.06622"
           y="439.10458"
           id="myDiam"
           style="font-size:10px;line-height:0%;stroke:none">myDiam</tspan></text>
      <path
         d="m 280.93471,344.90854 -19.4019,-10.83928"
         id="path5125"
         style="fill:none;stroke:#222222;stroke-width:0.81859267;stroke-linecap:butt;stroke-linejoin:miter;stroke-miterlimit:4;stroke-opacity:1;stroke-dasharray:none"
         inkscape:connector-curvature="0" />
      <path
         d="m 232.04417,334.27325 29.52547,0"
         id="path4291-1"
         style="fill:none;stroke:#222222;stroke-width:0.61613643;stroke-linecap:butt;stroke-linejoin:miter;stroke-miterlimit:4;stroke-opacity:1;stroke-dasharray:none"
         inkscape:connector-curvature="0" />
      <text
         x="195.83577"
         y="331.12521"
         id="myMat"
         xml:space="preserve"
         style="font-size:6px;font-style:normal;font-weight:normal;line-height:125%;letter-spacing:0px;word-spacing:0px;fill:#000000;fill-opacity:1;stroke:none;font-family:Sans"
         sodipodi:linespacing="125%"><tspan
           x="195.83577"
           y="331.12521"
           id="tspan5147"
           style="font-size:10px">myMat</tspan></text>
      <text
         x="269.26038"
         y="317.55231"
         id="text5149"
         xml:space="preserve"
         style="font-size:10px;font-style:normal;font-weight:normal;line-height:125%;letter-spacing:0px;word-spacing:0px;fill:#000000;fill-opacity:1;stroke:none;font-family:Sans"
         sodipodi:linespacing="125%"><tspan
           x="269.26038"
           y="317.55231"
           id="tspan5151"
           style="font-size:10px">Install date:</tspan></text>
      <text
         x="329.12891"
         y="317.55231"
         id="myDatechgmgc "
         xml:space="preserve"
         style="font-size:6px;font-style:normal;font-weight:normal;line-height:125%;letter-spacing:0px;word-spacing:0px;fill:#000000;fill-opacity:1;stroke:none;font-family:Sans"
         sodipodi:linespacing="125%"><tspan
           x="329.12891"
           y="317.55231"
           id="myDate"
           style="font-size:10px">myGradient</tspan></text>
      <text
         x="248.54622"
         y="423.60458"
         id="text5149-1"
         xml:space="preserve"
         style="font-size:6px;font-style:normal;font-weight:normal;line-height:125%;letter-spacing:0px;word-spacing:0px;fill:#000000;fill-opacity:1;stroke:none;font-family:Sans"
         sodipodi:linespacing="125%"><tspan
           x="248.54622"
           y="423.60458"
           id="tspan5151-1"
           style="font-size:10px">Gradient:</tspan></text>
      <text
         x="296.45697"
         y="423.60458"
         id="myGrad3"
         xml:space="preserve"
         style="font-size:6px;font-style:normal;font-weight:normal;line-height:125%;letter-spacing:0px;word-spacing:0px;fill:#000000;fill-opacity:1;stroke:none;font-family:Sans"
         sodipodi:linespacing="125%"><tspan
           x="296.45697"
           y="423.60458"
           id="myGrad"
           style="font-size:10px">myGradient:</tspan></text>
      <text
         x="199.67191"
         y="439.10458"
         id="text5149-9"
         xml:space="preserve"
         style="font-size:10px;font-style:normal;font-weight:normal;line-height:125%;letter-spacing:0px;word-spacing:0px;fill:#000000;fill-opacity:1;stroke:none;font-family:Sans"
         sodipodi:linespacing="125%"><tspan
           x="199.67191"
           y="439.10458"
           id="tspan5151-3"
           style="font-size:10px">Hydraulic Diamter:</tspan></text>
      <g
         transform="translate(-54.440367,226.30683)"
         id="g4342">
        <path
           transform="matrix(2.0241758,0,0,2.0731591,337.96443,73.960194)"
           inkscape:transform-center-y="12.964688"
           d="m 15.254238,51.709276 -10.8315368,-18.76077 -10.831536,-18.76077 21.6630718,0 21.663071,-10e-7 -10.831535,18.760771 z"
           inkscape:randomized="0"
           inkscape:rounded="0"
           inkscape:flatsided="false"
           sodipodi:arg2="2.6179939"
           sodipodi:arg1="1.5707963"
           sodipodi:r2="12.50718"
           sodipodi:r1="25.01436"
           sodipodi:cy="26.694916"
           sodipodi:cx="15.254237"
           sodipodi:sides="3"
           id="path2986"
           style="fill:none;stroke:#333333;stroke-width:0.68341988;stroke-linecap:butt;stroke-linejoin:miter;stroke-miterlimit:4;stroke-opacity:1;stroke-dasharray:none"
           sodipodi:type="star" />
        <path
           transform="matrix(1.6550885,0,0,1.6951402,343.48943,83.580894)"
           inkscape:transform-center-y="10.600713"
           d="m 15.254238,51.709276 -10.8315368,-18.76077 -10.831536,-18.76077 21.6630718,0 21.663071,-10e-7 -10.831535,18.760771 z"
           inkscape:randomized="0"
           inkscape:rounded="0"
           inkscape:flatsided="false"
           sodipodi:arg2="2.6179939"
           sodipodi:arg1="1.5707963"
           sodipodi:r2="12.50718"
           sodipodi:r1="25.01436"
           sodipodi:cy="26.694916"
           sodipodi:cx="15.254237"
           sodipodi:sides="3"
           id="path2986-2"
           style="fill:none;stroke:#333333;stroke-width:0.8358236;stroke-linecap:butt;stroke-linejoin:miter;stroke-miterlimit:4;stroke-opacity:1;stroke-dasharray:none"
           sodipodi:type="star" />
        <path
           inkscape:connector-curvature="0"
           id="path3774-5"
           d="m 340.21686,120.95698 56.779,0"
           style="fill:none;stroke:#333333;stroke-width:0.89999998;stroke-linecap:butt;stroke-linejoin:miter;stroke-miterlimit:4;stroke-opacity:1;stroke-dasharray:none" />
        <path
           sodipodi:nodetypes="ccccccccccccccccccccccccccccccccccccccccccccccccccccccccccccccccccccccccccccccccccccccccccccccccccccccccccccccccccccccccccccccccccccccccccccccccccccccccccccccccccccccccccccccccccccccccccccccccccccccccccccccccccccccccccccccccc"
           inkscape:connector-curvature="0"
           id="path3758-9-7-9-6-0-9-8-4-3-8-9"
           d="m 326.74,104.068 7.65625,7.65625 -1.5,-2.625 -5,-5.03125 z m 5,0 2.84375,2.84375 1.125,0 -2.8125,-2.84375 z m 5,0 2.84375,2.84375 1.125,0 -2.8125,-2.84375 z m 5,0 2.84375,2.84375 1.125,0 -2.8125,-2.84375 z m 5,0 2.84375,2.84375 1.125,0 -2.8125,-2.84375 z m 5,0 2.84375,2.84375 1.125,0 -2.8125,-2.84375 z m 5,0 2.84375,2.84375 1.125,0 -2.8125,-2.84375 z m 5,0 2.84375,2.84375 1.125,0 -2.8125,-2.84375 z m 5,0 2.84375,2.84375 1.125,0 -2.8125,-2.84375 z m 5,0 2.84375,2.84375 1.125,0 -2.8125,-2.84375 z m 5,0 2.84375,2.84375 1.125,0 -2.8125,-2.84375 z m 5,0 2.84375,2.84375 1.125,0 -2.8125,-2.84375 z m 5,0 2.84375,2.84375 1.125,0 -2.8125,-2.84375 z m 5,0 2.84375,2.84375 1.125,0 -2.8125,-2.84375 z m 5,0 2.84375,2.84375 1.125,0 -2.8125,-2.84375 z m 5,0 2.84375,2.84375 1.125,0 -2.8125,-2.84375 z m 5,0 3.03125,3.03125 0.40625,-0.75 -2.28125,-2.28125 z m -0.9375,2.90625 -0.4375,0.71875 2.59375,2.59375 0.40625,-0.71875 z m -1.84375,3.1875 -0.40625,0.71875 2.59375,2.59375 0.40625,-0.71875 z m -73.375,1.625 1.46875,2.59375 8.84375,8.84375 -1.46875,-2.625 z m 71.59375,1.5625 -0.40625,0.75 2.59375,2.59375 0.40625,-0.75 z m -1.8125,3.21875 -0.40625,0.71875 2.59375,2.59375 0.40625,-0.71875 z m -1.8125,3.1875 -0.40625,0.71875 2.59375,2.59375 0.40625,-0.71875 z m -1.8125,3.1875 -0.40625,0.71875 2.625,2.625 0.40625,-0.75 z m -59.6875,0.3125 1.46875,2.59375 8.875,8.875 -1.46875,-2.59375 z m 57.90625,2.90625 -0.40625,0.71875 2.59375,2.59375 0.40625,-0.71875 z m -1.8125,3.1875 -0.40625,0.71875 2.59375,2.59375 0.40625,-0.71875 z m -1.8125,3.1875 -0.40625,0.71875 2.59375,2.625 0.40625,-0.75 z m -47.8125,2.1875 1.4375,2.5625 8.90625,8.90625 -1.4375,-2.5625 -7.09375,-7.09375 z m 46.03125,1.03125 -0.40625,0.71875 0.625,0.625 1.96875,1.96875 0.40625,-0.71875 -1.8125,-1.8125 z m -1.8125,3.1875 -0.40625,0.71875 2.59375,2.59375 0.21875,-0.375 0.1875,-0.34375 z m -1.8125,3.1875 -0.40625,0.71875 2.625,2.625 0.40625,-0.75 z m -1.78125,3.1875 -0.40625,0.75 2.59375,2.59375 0.40625,-0.71875 z m -34.1875,0.84375 1.4375,2.5625 8.9375,8.9375 -1.46875,-2.59375 z m 32.375,2.375 -0.40625,0.71875 2.59375,2.59375 0.40625,-0.71875 z m -1.8125,3.1875 -0.40625,0.71875 2.625,2.625 0.40625,-0.75 z m -1.78125,3.1875 -0.40625,0.75 2.59375,2.59375 0.40625,-0.71875 z m -22.375,2.65625 1.46875,2.59375 8.96875,8.96875 -1.46875,-2.625 z m 20.5625,0.5625 -0.40625,0.71875 2.59375,2.59375 0.40625,-0.71875 z m -1.78125,3.1875 -0.4375,0.71875 2.625,2.625 0.40625,-0.75 z m -1.8125,3.1875 -0.40625,0.75 2.59375,2.59375 0.40625,-0.71875 z m -1.8125,3.21875 -0.40625,0.71875 2.59375,2.59375 0.4375,-0.71875 z m -8.71875,1.25 1.46875,2.625 5.84375,5.84375 0.40625,-0.71875 z m 6.9375,1.9375 -0.375,0.65625 -0.0625,0.0625 2.625,2.625 0.40625,-0.75 z"
           style="font-size:medium;font-style:normal;font-variant:normal;font-weight:normal;font-stretch:normal;text-indent:0;text-align:start;text-decoration:none;line-height:normal;letter-spacing:normal;word-spacing:normal;text-transform:none;direction:ltr;block-progression:tb;writing-mode:lr-tb;text-anchor:start;baseline-shift:baseline;color:#000000;fill:#333333;fill-opacity:1;stroke:none;stroke-width:0.80000001;marker:none;visibility:visible;display:inline;overflow:visible;enable-background:accumulate;font-family:Sans;-inkscape-font-specification:Sans" />
      </g>
    </g>
  </g>
</svg>
