<?xml version="1.0" encoding="UTF-8" standalone="no"?>
<!-- Created with Inkscape (http://www.inkscape.org/) -->

<svg
   xmlns:dc="http://purl.org/dc/elements/1.1/"
   xmlns:cc="http://creativecommons.org/ns#"
   xmlns:rdf="http://www.w3.org/1999/02/22-rdf-syntax-ns#"
   xmlns:svg="http://www.w3.org/2000/svg"
   xmlns="http://www.w3.org/2000/svg"
   xmlns:sodipodi="http://sodipodi.sourceforge.net/DTD/sodipodi-0.dtd"
   xmlns:inkscape="http://www.inkscape.org/namespaces/inkscape"
   version="1.1"
   width="212.36"
   height="148.23"
   id="svg3111"
   inkscape:version="0.48.4 r9939"
   sodipodi:docname="u.svg">
  <sodipodi:namedview
     pagecolor="#ffffff"
     bordercolor="#666666"
     borderopacity="1"
     objecttolerance="10"
     gridtolerance="10"
     guidetolerance="10"
     inkscape:pageopacity="0"
     inkscape:pageshadow="2"
     inkscape:window-width="1289"
     inkscape:window-height="744"
     id="namedview30"
     showgrid="false"
     inkscape:zoom="2.0647518"
     inkscape:cx="94.088996"
     inkscape:cy="92.541143"
     inkscape:window-x="77"
     inkscape:window-y="24"
     inkscape:window-maximized="1"
     inkscape:current-layer="g4005"
     fit-margin-top="0"
     fit-margin-left="0"
     fit-margin-right="0"
     fit-margin-bottom="0" />
  <defs
     id="defs3113" />
  <metadata
     id="metadata3116">
    <rdf:RDF>
      <cc:Work
         rdf:about="">
        <dc:format>image/svg+xml</dc:format>
        <dc:type
           rdf:resource="http://purl.org/dc/dcmitype/StillImage" />
        <dc:title />
      </cc:Work>
    </rdf:RDF>
  </metadata>
  <g
     transform="translate(-236.45818,-299.25077)"
     id="layer1">
    <g
       id="g4005"
       transform="translate(49.400611,0)">
      <text
         x="296.06622"
         y="439.10458"
         id="ghjrtjjy"
         xml:space="preserve"
         style="font-size:10px;font-style:normal;font-weight:normal;line-height:0%;letter-spacing:0px;word-spacing:0px;fill:#000000;fill-opacity:1;stroke:none;font-family:Sans"
         sodipodi:linespacing="0%"><tspan
           x="296.06622"
           y="439.10458"
           id="myDiam"
           style="font-size:10px;line-height:0%;stroke:none">myDiam</tspan></text>
      <path
         d="M 289.2569,348.2324 275.08446,334.05996"
         id="path5125"
         style="fill:none;stroke:#222222;stroke-width:0.80000001;stroke-linecap:butt;stroke-linejoin:miter;stroke-miterlimit:4;stroke-opacity:1;stroke-dasharray:none"
         inkscape:connector-curvature="0" />
      <path
         d="m 245.60512,334.27325 29.52547,0"
         id="path4291-1"
         style="fill:none;stroke:#222222;stroke-width:0.61613643;stroke-linecap:butt;stroke-linejoin:miter;stroke-miterlimit:4;stroke-opacity:1;stroke-dasharray:none"
         inkscape:connector-curvature="0" />
      <text
         x="195.83577"
         y="331.12521"
         id="myMat"
         xml:space="preserve"
         style="font-size:8px;font-style:normal;font-weight:normal;line-height:125%;letter-spacing:0px;word-spacing:0px;fill:#000000;fill-opacity:1;stroke:none;font-family:Sans"
         sodipodi:linespacing="125%"><tspan
           x="195.83577"
           y="331.12521"
           id="tspan5147"
           style="font-size:10px">myMat</tspan></text>
      <text
         x="269.26038"
         y="317.55231"
         id="text5149"
         xml:space="preserve"
         style="font-size:10px;font-style:normal;font-weight:normal;line-height:125%;letter-spacing:0px;word-spacing:0px;fill:#000000;fill-opacity:1;stroke:none;font-family:Sans"
         sodipodi:linespacing="125%"><tspan
           x="269.26038"
           y="317.55231"
           id="tspan5151"
           style="font-size:10px">Install date:</tspan></text>
      <text
         x="329.12891"
         y="317.55231"
         id="myDatechgmgc "
         xml:space="preserve"
         style="font-size:6px;font-style:normal;font-weight:normal;line-height:125%;letter-spacing:0px;word-spacing:0px;fill:#000000;fill-opacity:1;stroke:none;font-family:Sans"
         sodipodi:linespacing="125%"><tspan
           x="329.12891"
           y="317.55231"
           id="myDate"
           style="font-size:10px">myGradient</tspan></text>
      <text
         x="248.54622"
         y="423.60458"
         id="text5149-1"
         xml:space="preserve"
         style="font-size:6px;font-style:normal;font-weight:normal;line-height:125%;letter-spacing:0px;word-spacing:0px;fill:#000000;fill-opacity:1;stroke:none;font-family:Sans"
         sodipodi:linespacing="125%"><tspan
           x="248.54622"
           y="423.60458"
           id="tspan5151-1"
           style="font-size:10px">Gradient:</tspan></text>
      <text
         x="296.45697"
         y="423.60458"
         id="myGrad3"
         xml:space="preserve"
         style="font-size:6px;font-style:normal;font-weight:normal;line-height:125%;letter-spacing:0px;word-spacing:0px;fill:#000000;fill-opacity:1;stroke:none;font-family:Sans"
         sodipodi:linespacing="125%"><tspan
           x="296.45697"
           y="423.60458"
           id="myGrad"
           style="font-size:10px">myGradient:</tspan></text>
      <text
         x="199.67191"
         y="439.10458"
         id="text5149-9"
         xml:space="preserve"
         style="font-size:10px;font-style:normal;font-weight:normal;line-height:125%;letter-spacing:0px;word-spacing:0px;fill:#000000;fill-opacity:1;stroke:none;font-family:Sans"
         sodipodi:linespacing="125%"><tspan
           x="199.67191"
           y="439.10458"
           id="tspan5151-3"
           style="font-size:10px">Hydraulic Diameter:</tspan></text>
      <g
         transform="translate(-158.59552,121.2469)"
         id="g4423">
        <path
           sodipodi:nodetypes="scssscs"
           inkscape:connector-curvature="0"
           id="rect3787"
           d="m 480.42538,204.82329 c 17.84396,0 32.25894,-0.20553 32.25894,-0.20553 l -0.36167,46.46943 c -0.15091,19.38941 -14.36536,35 -32.20932,35 -17.84396,0 -32.29771,-15.61021 -32.20931,-35 l 0.21187,-46.46943 c 0,0 14.46553,0.20553 32.30949,0.20553 z"
           style="fill:none;stroke:#333333;stroke-width:1.39999998;stroke-linecap:butt;stroke-linejoin:miter;stroke-miterlimit:4;stroke-opacity:1;stroke-dasharray:none" />
        <path
           sodipodi:nodetypes="scssscs"
           inkscape:connector-curvature="0"
           id="rect3787-8"
           d="m 480.11344,209.02155 c 15.62035,0 28.19558,-0.22251 28.19558,-0.22251 l 0,42.2368 c 0,16.97373 -12.57523,30.6385 -28.19558,30.6385 -15.62034,0 -28.07516,-13.6652 -28.19557,-30.6385 l -0.29962,-42.2368 c 0,0 12.87485,0.22251 28.49519,0.22251 z"
           style="fill:none;stroke:#333333;stroke-width:1.39999998;stroke-linecap:butt;stroke-linejoin:miter;stroke-miterlimit:4;stroke-opacity:1;stroke-dasharray:none" />
        <path
           inkscape:connector-curvature="0"
           id="path3813"
           d="m 451.86401,228.09922 56.14406,0"
           style="fill:none;stroke:#333333;stroke-width:0.89999998;stroke-linecap:butt;stroke-linejoin:miter;stroke-miterlimit:4;stroke-opacity:1;stroke-dasharray:none" />
        <path
           sodipodi:nodetypes="ccccccccccccccccccccccccccccccccccccccccccccccccccccccccccccsccccccccccccccccccccccccccccccccccccccccccccccccccccccccccccccccccccccccccccccccccccccccccccccccccccccccccccccccccccccccccccccccccccccccccccccccccccccccccccccccccccccccccccccccccccccccccc"
           inkscape:connector-curvature="0"
           id="path3758-9-7-9-6-0-9-8-4-3-8-0"
           d="m 449.43115,205.3286 2.78125,2.78125 c 0.0681,0.001 0.97324,0.0284 1.15625,0.0312 l -2.78125,-2.78125 c -0.18547,-0.002 -1.06209,-0.03 -1.15625,-0.0312 z m 61.15625,0 c -0.14236,0.002 -0.89736,0.0284 -1.125,0.0312 l 2.4375,2.4375 0.0312,-1.125 z m -56.09375,0.0625 2.78135,2.78125 c 0.522,0.007 0.54836,-0.007 1.15625,0 L 455.65,205.3911 c -0.53717,-0.005 -0.69255,0.005 -1.15625,0 z m 50,0 2.71875,2.71875 c 0.0966,-0.002 1.03125,0 1.03125,0 l 0.125,0 -2.71875,-2.71875 c -0.50189,0.005 -0.5819,-0.005 -1.15625,0 z m -44.96865,0.0312 2.8125,2.8125 c 0.36122,0.003 0.78083,-0.003 1.15625,0 l -2.8125,-2.8125 c -0.35874,-0.003 -0.81112,0.003 -1.15625,0 z m 41.15625,0 c -0.34125,0.003 -0.77101,0.0287 -1.125,0.0312 l 2.71875,2.7188 c 0.53886,-0.007 0.67454,0.006 1.125,0 z m -36.125,0.0312 2.8125,2.8125 c 0.42962,0.003 0.74593,0.0285 1.1875,0.0312 l -2.84375,-2.8125 c -0.4128,-0.002 -0.75511,-0.0289 -1.15625,-0.0312 z m 31.15625,0 c -0.39443,0.002 -0.71964,0.0291 -1.125,0.0312 l 2.75,2.75 c 0.35452,-0.003 0.78472,0.003 1.125,0 z m -26.125,0.0312 2.8125,2.8125 c 0.37632,0.002 0.77395,-0.001 1.15625,0 l -2.8125,-2.8125 c -0.36823,-0.001 -0.7945,0.001 -1.15625,0 z m 20,0 2.8125,2.8125 c 0.41019,-0.003 0.72647,-0.0283 1.125,-0.0312 l -2.78125,-2.78125 c -0.36385,0.001 -0.78595,-0.001 -1.15625,0 z m -14.96875,0.0312 2.8125,2.8125 c 0.39969,6.4e-4 0.75217,-3.7e-4 1.15625,0 l -2.84375,-2.8125 c -0.38286,-7.1e-4 -0.7473,8.6e-4 -1.125,0 z m 5,0 2.8125,2.8125 c 0.39011,-5.7e-4 0.7397,8.2e-4 1.125,0 l -2.78125,-2.81235 c -0.14465,2e-5 -0.26105,0 -0.40625,0 -0.26781,0 -0.48406,8e-5 -0.75,0 z m 5,0 2.78125,2.78125 c 0.37666,-0.002 0.78616,0.002 1.15625,0 l -2.8125,-2.78125 c -0.3795,8.1e-4 -0.74036,-6.6e-4 -1.125,0 z m -35.875,2.9689 -0.0312,1.125 2.15625,2.15625 -0.0312,-1.15625 z m 60.1875,0.1875 0,0.125 0,1.03125 2.9375,2.9375 0,-1.125 z m -60.21875,4.78115 0,1.15625 2.1875,2.1875 0,-1.15625 z m 60.21875,0.21885 0,1.15625 2.90625,2.90625 0,-1.125 z m -60.25,4.75 0,1.15625 2.25,2.25 0,-1.15625 z m 60.25,0.28125 0,1.125 2.84375,2.84375 0.0312,-1.125 z m -60.28125,4.71875 0,1.125 2.3125,2.3125 0,-1.125 z m 60.28125,0.28125 0,1.125 2.8125,2.8125 0,-1.125 z m -60.3125,4.6875 0,1.125 2.375,2.375 0,-1.125 z m 60.3125,0.3125 0,1.125 2.78125,2.78125 0,-1.125 z m -60.3125,4.65625 0,1.15625 2.4375,2.4375 -0.0312,-1.15625 z m 60.3125,0.34375 0,1.125 2.75,2.75 0,-1.125 z m -60.34375,4.65625 0,1.125 2.5,2.5 0,-1.15625 z m 60.34375,0.34375 0,1.125 2.6875,2.6875 0.0312,-1.125 z m -60.375,4.625 0,1.125 2.5625,2.5625 0,-1.125 z m 60.375,0.375 0,1.125 2.65625,2.65625 0,-1.125 z m -60.40625,4.59375 0,1.125 2.65625,2.65625 c -0.0127,-0.34716 -0.0288,-0.68129 -0.0312,-1.03125 l 0,-0.125 z m 60.40625,0.40625 0,1.125 2.59375,2.59375 c 0.0152,-0.36207 0.0261,-0.72877 0.0312,-1.09375 z m -60.34375,4.65625 c 0.0232,0.41489 0.0571,0.80814 0.0937,1.21875 l 3.1875,3.1875 c -0.0927,-0.45216 -0.17518,-0.91572 -0.25,-1.375 z m 60.25,0.25 c -0.0257,0.34337 -0.058,0.69114 -0.0937,1.03125 l 2.34375,2.34375 c 0.0541,-0.33238 0.0795,-0.66432 0.125,-1 z m -0.625,4.375 c -0.0652,0.31416 -0.11367,0.62703 -0.1875,0.9375 l 2.125,2.125 c 0.0817,-0.29202 0.17511,-0.57967 0.25,-0.875 z M 449.4,259.14105 c 0.10994,0.5049 0.21345,1.00424 0.34375,1.5 l 4.59375,4.59375 c -0.30755,-0.65522 -0.60905,-1.31907 -0.875,-2 z m 57.78125,2.78125 c -0.0973,0.28674 -0.20777,0.56105 -0.3125,0.84375 L 508.9,264.7973 c 0.10798,-0.27014 0.21065,-0.53874 0.3125,-0.8125 z m -1.46875,3.5625 c -0.12047,0.25226 -0.24844,0.50184 -0.375,0.75 l 2,2 c 0.13074,-0.24757 0.24973,-0.49853 0.375,-0.75 z m -53.75,1.25 c 0.37183,0.79096 0.76184,1.55907 1.1875,2.3125 l 12.65625,12.65625 c 0.74404,0.40829 1.50478,0.78027 2.28125,1.125 z m 51.96875,1.96875 c -0.14419,0.22921 -0.28787,0.46275 -0.4375,0.6875 l 1.9375,1.9375 c 0.15412,-0.23019 0.31976,-0.45296 0.46875,-0.6875 z m -2.09375,2.90625 c -0.16597,0.2067 -0.32913,0.42315 -0.5,0.625 l 1.96875,1.96875 c 0.17594,-0.21078 0.36009,-0.40942 0.53125,-0.625 z m -2.34375,2.65625 c -0.18937,0.18627 -0.39981,0.35044 -0.59375,0.53125 l 2,2 c 0.19087,-0.18442 0.37582,-0.3731 0.5625,-0.5625 z m -2.6875,2.3125 c -0.2118,0.1633 -0.40897,0.34281 -0.625,0.5 l 2.03125,2.03125 c 0.21193,-0.16356 0.44827,-0.29963 0.65625,-0.46875 z m -2.96875,2.03125 c -0.24058,0.14104 -0.50531,0.24122 -0.75,0.375 l 2.15625,2.15625 c 0.23736,-0.14271 0.48524,-0.28832 0.71875,-0.4375 z m -24.6875,1.4375 4.6875,4.6875 c 0.47229,0.10226 0.92665,0.1708 1.40625,0.25 l -4.1875,-4.1875 c -0.64334,-0.22827 -1.28424,-0.47504 -1.90625,-0.75 z m 21.34375,0.21875 c -0.2673,0.11159 -0.54136,0.20933 -0.8125,0.3125 l 2.28125,2.28125 c 0.26541,-0.11769 0.51958,-0.24969 0.78125,-0.375 z m -3.75,1.21875 c -0.30249,0.0772 -0.60008,0.18318 -0.90625,0.25 l 2.46875,2.46875 c 0.29411,-0.0863 0.58447,-0.18598 0.875,-0.28125 z m -10.59375,0.5625 3.3125,3.3125 c 0.19833,0.004 0.39456,0.0312 0.59375,0.0312 0.18873,0 0.37461,-0.0277 0.5625,-0.0312 l -3.15625,-3.125 c -0.4375,-0.0423 -0.88114,-0.12444 -1.3125,-0.1875 z m 6.34375,0.1875 c -0.36372,0.0326 -0.7262,0.0445 -1.09375,0.0625 l 2.78125,2.78125 c 0.33639,-0.0474 0.66717,-0.0974 1,-0.15625 z"
           style="font-size:medium;font-style:normal;font-variant:normal;font-weight:normal;font-stretch:normal;text-indent:0;text-align:start;text-decoration:none;line-height:normal;letter-spacing:normal;word-spacing:normal;text-transform:none;direction:ltr;block-progression:tb;writing-mode:lr-tb;text-anchor:start;baseline-shift:baseline;color:#000000;fill:#333333;fill-opacity:1;stroke:none;stroke-width:0.80000001;marker:none;visibility:visible;display:inline;overflow:visible;enable-background:accumulate;font-family:Sans;-inkscape-font-specification:Sans" />
      </g>
    </g>
  </g>
</svg>
