<?xml version="1.0" encoding="UTF-8" standalone="no"?>
<!-- Created with Inkscape (http://www.inkscape.org/) -->

<svg
   xmlns:dc="http://purl.org/dc/elements/1.1/"
   xmlns:cc="http://creativecommons.org/ns#"
   xmlns:rdf="http://www.w3.org/1999/02/22-rdf-syntax-ns#"
   xmlns:svg="http://www.w3.org/2000/svg"
   xmlns="http://www.w3.org/2000/svg"
   version="1.1"
   width="100"
   height="100"
   id="svg2">
  <defs
     id="defs4" />
  <metadata
     id="metadata7">
    <rdf:RDF>
      <cc:Work
         rdf:about="">
        <dc:format>image/svg+xml</dc:format>
        <dc:type
           rdf:resource="http://purl.org/dc/dcmitype/StillImage" />
        <dc:title></dc:title>
      </cc:Work>
    </rdf:RDF>
  </metadata>
  <path
     d="m 48.900361,11.046103 c 17.843959,0 32.258939,-0.205529 32.258939,-0.205529 L 80.797625,57.31 c -0.150909,19.389413 -14.365354,35 -32.209313,35 -17.843959,0 -32.297714,-15.610202 -32.209312,-35 l 0.211864,-46.469426 c 0,0 14.465538,0.205529 32.309497,0.205529 z"
     id="rect3787"
     style="fill:none;stroke:#222222;stroke-width:0.40000001;stroke-linecap:butt;stroke-linejoin:miter;stroke-miterlimit:4;stroke-opacity:1;stroke-dasharray:none" />
  <path
     d="m 48.588423,15.244367 c 15.620349,0 28.195575,-0.222512 28.195575,-0.222512 l 0,42.236795 c 0,16.973731 -12.575226,30.638504 -28.195575,30.638504 -15.620349,0 -28.07517,-13.6652 -28.195576,-30.638504 L 20.093225,15.021855 c 0,0 12.874849,0.222512 28.495198,0.222512 z"
     id="rect3787-8"
     style="fill:none;stroke:#222222;stroke-width:0.40000001;stroke-linecap:butt;stroke-linejoin:miter;stroke-miterlimit:4;stroke-opacity:1;stroke-dasharray:none" />
  <path
     d="m 20.338983,34.322034 56.144068,0"
     id="path3813"
     style="fill:none;stroke:#000000;stroke-width:0.40000001;stroke-linecap:butt;stroke-linejoin:miter;stroke-miterlimit:4;stroke-opacity:1;stroke-dasharray:none" />
</svg>
